<svg xmlns="http://www.w3.org/2000/svg" width="16.923" height="16.919" viewBox="0 0 16.923 16.919">
  <path id="Icon_awesome-instagram" data-name="Icon awesome-instagram" d="M8.458,6.359A4.338,4.338,0,1,0,12.8,10.7,4.331,4.331,0,0,0,8.458,6.359Zm0,7.158a2.82,2.82,0,1,1,2.82-2.82A2.825,2.825,0,0,1,8.458,13.517Zm5.527-7.335A1.012,1.012,0,1,1,12.973,5.17,1.009,1.009,0,0,1,13.985,6.182Zm2.873,1.027a5.007,5.007,0,0,0-1.367-3.545A5.04,5.04,0,0,0,11.946,2.3c-1.4-.079-5.584-.079-6.98,0A5.033,5.033,0,0,0,1.421,3.66,5.023,5.023,0,0,0,.054,7.205c-.079,1.4-.079,5.584,0,6.981a5.007,5.007,0,0,0,1.367,3.545A5.046,5.046,0,0,0,4.966,19.1c1.4.079,5.584.079,6.98,0a5.007,5.007,0,0,0,3.545-1.367,5.04,5.04,0,0,0,1.367-3.545c.079-1.4.079-5.58,0-6.977Zm-1.8,8.476a2.855,2.855,0,0,1-1.608,1.608c-1.114.442-3.756.34-4.987.34s-3.877.1-4.987-.34a2.855,2.855,0,0,1-1.608-1.608c-.442-1.114-.34-3.756-.34-4.987s-.1-3.877.34-4.987A2.855,2.855,0,0,1,3.471,4.1c1.114-.442,3.756-.34,4.987-.34s3.877-.1,4.987.34A2.855,2.855,0,0,1,15.053,5.71c.442,1.114.34,3.756.34,4.987S15.5,14.574,15.053,15.684Z" transform="translate(0.005 -2.238)" fill="#42adea"/>
</svg>
