<svg xmlns="http://www.w3.org/2000/svg" width="16.913" height="16.913" viewBox="0 0 16.913 16.913">
  <path id="Icon_awesome-linkedin-in" data-name="Icon awesome-linkedin-in" d="M3.786,16.914H.279V5.622H3.786ZM2.031,4.081a2.04,2.04,0,1,1,2.031-2.05A2.048,2.048,0,0,1,2.031,4.081ZM16.909,16.914h-3.5v-5.5c0-1.31-.026-2.99-1.823-2.99-1.823,0-2.1,1.423-2.1,2.9v5.591h-3.5V5.622H9.345v1.54h.049a3.684,3.684,0,0,1,3.318-1.823c3.549,0,4.2,2.337,4.2,5.372v6.2Z" transform="translate(0 0)" fill="#42adea"/>
</svg>
