<svg xmlns="http://www.w3.org/2000/svg" width="58" height="50" viewBox="0 0 58 50">
  <g id="Grupo_8518" data-name="Grupo 8518" transform="translate(0 -10)">
    <path id="Retângulo_993" data-name="Retângulo 993" d="M15,0H43A15,15,0,0,1,58,15V50a0,0,0,0,1,0,0H15A15,15,0,0,1,0,35V15A15,15,0,0,1,15,0Z" transform="translate(0 10)" fill="#42adea"/>
    <g id="_1" data-name="1" transform="translate(17 41.454) rotate(-90)">
      <path id="Caminho_37" data-name="Caminho 37" d="M.9,23.887a.9.9,0,0,1-.633-1.53L10.676,11.943.263,1.53A.9.9,0,1,1,1.53.262L12.577,11.31a.9.9,0,0,1,0,1.267L1.53,23.624A.9.9,0,0,1,.9,23.887Z" fill="#fff" stroke="#fff" stroke-width="0.8"/>
    </g>
  </g>
</svg>
