<svg id="Grupo_8519" data-name="Grupo 8519" xmlns="http://www.w3.org/2000/svg" xmlns:xlink="http://www.w3.org/1999/xlink" width="38.685" height="38.685" viewBox="0 0 38.685 38.685">
  <defs>
    <clipPath id="clip-path">
      <rect id="Retângulo_1083" data-name="Retângulo 1083" width="38.685" height="38.685" fill="#8ba8c1"/>
    </clipPath>
  </defs>
  <g id="Grupo_8350" data-name="Grupo 8350" clip-path="url(#clip-path)">
    <g id="Grupo_8349" data-name="Grupo 8349" transform="translate(0 0)">
      <path id="Caminho_1101" data-name="Caminho 1101" d="M-126.207,34.585a2.571,2.571,0,0,0-.662-.331c-.235-.079-.457-.159-.662-.235a8.074,8.074,0,0,0-1.112-.308,1.069,1.069,0,0,0-.612.023.438.438,0,0,0-.173.132.438.438,0,0,0-.088.2,3.753,3.753,0,0,0-.046.662v8.594a1.36,1.36,0,0,0,.192.6,1.653,1.653,0,0,0,.5.519,2.571,2.571,0,0,0,.662.331c.235.079.457.159.662.235a8.075,8.075,0,0,0,1.108.308,1.077,1.077,0,0,0,.615-.023.446.446,0,0,0,.172-.133.444.444,0,0,0,.089-.2,3.786,3.786,0,0,0,.046-.662V35.713a1.364,1.364,0,0,0-.192-.6,1.657,1.657,0,0,0-.5-.529Z" transform="translate(146.909 -20.221)" fill="#8ba8c1"/>
      <path id="Caminho_1102" data-name="Caminho 1102" d="M-162.658-7A19.342,19.342,0,0,0-173.4-3.74a19.342,19.342,0,0,0-7.124,8.68,19.339,19.339,0,0,0-1.1,11.176,19.342,19.342,0,0,0,5.293,9.9,19.345,19.345,0,0,0,9.9,5.294,19.341,19.341,0,0,0,11.175-1.1,19.339,19.339,0,0,0,8.681-7.124,19.342,19.342,0,0,0,3.26-10.746,19.34,19.34,0,0,0-1.472-7.4,19.347,19.347,0,0,0-4.193-6.275,19.345,19.345,0,0,0-6.275-4.193A19.337,19.337,0,0,0-162.658-7Zm10.11,23.282a.493.493,0,0,1-.021.224.5.5,0,0,1-.118.191.493.493,0,0,1-.191.119.492.492,0,0,1-.223.022h-.939c-.576,0-.516-.48-.516-.48V8.674a1.477,1.477,0,0,0-.2-.794,1.773,1.773,0,0,0-.5-.519,2.441,2.441,0,0,0-.662-.331q-.367-.119-.662-.238a8.175,8.175,0,0,0-1.121-.284,1.069,1.069,0,0,0-.605.023.458.458,0,0,0-.164.135.457.457,0,0,0-.084.2,3.785,3.785,0,0,0-.046.662V18.191a2.847,2.847,0,0,1-.05.556,1.769,1.769,0,0,1-.152.463,1.72,1.72,0,0,1-.331.427,2.335,2.335,0,0,1-1.108.579h-.023a2.137,2.137,0,0,1-1.2-.036l-1.3-.44c-.473-.165-.913-.311-1.323-.44l-.331-.129c-.149-.056-.271-.1-.364-.129a1.476,1.476,0,0,1-.4.615,2.394,2.394,0,0,1-1.086.579,2.394,2.394,0,0,1-1.23-.036l-1.31-.46q-.708-.248-1.3-.437l-.473-.165c-.189-.063-.3-.1-.331-.119a5.946,5.946,0,0,1-.589-.235,1.947,1.947,0,0,1-.556-.39,2.181,2.181,0,0,1-.427-.662,2.875,2.875,0,0,1-.2-1.042h-.023v-8.4a.493.493,0,0,1,.021-.224.5.5,0,0,1,.118-.191.493.493,0,0,1,.191-.119.492.492,0,0,1,.223-.022h.939c.576,0,.516.476.516.476V15.9a1.49,1.49,0,0,0,.2.794,1.815,1.815,0,0,0,.5.519,2.446,2.446,0,0,0,.662.331q.367.119.662.238a8.09,8.09,0,0,0,1.108.308,1.069,1.069,0,0,0,.605-.023.443.443,0,0,0,.163-.135.442.442,0,0,0,.082-.2,3.463,3.463,0,0,0,.05-.662V6.4a3.16,3.16,0,0,1,.046-.556,1.776,1.776,0,0,1,.155-.463,1.684,1.684,0,0,1,.331-.423,2.4,2.4,0,0,1,1.112-.582,2.569,2.569,0,0,1,.642-.066,1.833,1.833,0,0,1,.592.1l1.3.46c.473.165.913.311,1.323.44l.331.129c.149.056.271.1.364.129a1.479,1.479,0,0,1,.4-.615,2.393,2.393,0,0,1,1.086-.579,2.393,2.393,0,0,1,1.23.036l1.3.46q.711.248,1.3.437l.473.165c.189.063.3.1.331.119a5.788,5.788,0,0,1,.589.235,1.9,1.9,0,0,1,.556.39,2.181,2.181,0,0,1,.427.662,2.874,2.874,0,0,1,.2,1.042h.023Z" transform="translate(182 7)" fill="#8ba8c1"/>
    </g>
  </g>
</svg>
