<svg xmlns="http://www.w3.org/2000/svg" xmlns:xlink="http://www.w3.org/1999/xlink" width="101.401" height="101.214" viewBox="0 0 101.401 101.214">
  <defs>
    <clipPath id="clip-path">
      <path id="Caminho_1141" data-name="Caminho 1141" d="M963.989,531.109a17.67,17.67,0,0,0-17.618,17.618v66.166a17.683,17.683,0,0,0,15.049,17.43h71.3a17.683,17.683,0,0,0,15.049-17.43V548.727a17.669,17.669,0,0,0-17.617-17.618Z" fill="#0077af"/>
    </clipPath>
  </defs>
  <g id="Grupo_8532" data-name="Grupo 8532" transform="translate(-946.371 -531.109)">
    <g id="Grupo_8466" data-name="Grupo 8466" clip-path="url(#clip-path)">
      <path id="Caminho_1139" data-name="Caminho 1139" d="M1022.833,488.966H929.167a24.784,24.784,0,0,0-14.893,4.968h123.452a24.781,24.781,0,0,0-14.893-4.968" fill="#0077af"/>
      <path id="Caminho_1140" data-name="Caminho 1140" d="M1045.18,502.867H906.82a24.746,24.746,0,0,0-1.841,4.968H1047.02a24.743,24.743,0,0,0-1.84-4.968" fill="#0077af"/>
      <rect id="Retângulo_1157" data-name="Retângulo 1157" width="143.544" height="4.968" transform="translate(904.228 516.768)" fill="#0077af"/>
      <rect id="Retângulo_1158" data-name="Retângulo 1158" width="143.544" height="4.968" transform="translate(904.228 530.67)" fill="#0077af"/>
      <rect id="Retângulo_1159" data-name="Retângulo 1159" width="143.544" height="4.968" transform="translate(904.228 544.571)" fill="#0077af"/>
      <rect id="Retângulo_1160" data-name="Retângulo 1160" width="143.544" height="4.968" transform="translate(904.228 558.473)" fill="#0077af"/>
      <rect id="Retângulo_1161" data-name="Retângulo 1161" width="143.544" height="4.968" transform="translate(904.228 572.374)" fill="#0077af"/>
      <rect id="Retângulo_1162" data-name="Retângulo 1162" width="143.544" height="4.967" transform="translate(904.228 586.276)" fill="#0077af"/>
      <rect id="Retângulo_1163" data-name="Retângulo 1163" width="143.544" height="4.968" transform="translate(904.228 599.67)" fill="#0077af"/>
      <rect id="Retângulo_1164" data-name="Retângulo 1164" width="143.544" height="4.968" transform="translate(904.228 613.571)" fill="#0077af"/>
      <rect id="Retângulo_1165" data-name="Retângulo 1165" width="143.544" height="4.968" transform="translate(904.228 627.473)" fill="#0077af"/>
    </g>
  </g>
</svg>
